<svg width="220" height="220" viewBox="0 0 220 220" fill="none" xmlns="http://www.w3.org/2000/svg">
  <defs>
    <linearGradient id="rgShield" x1="42" y1="26" x2="182" y2="186" gradientUnits="userSpaceOnUse">
      <stop offset="0" stop-color="#54F0A8"/>
      <stop offset="0.52" stop-color="#22C97A"/>
      <stop offset="1" stop-color="#0C5A39"/>
    </linearGradient>
    <linearGradient id="rgHorn" x1="119" y1="67" x2="164" y2="36" gradientUnits="userSpaceOnUse">
      <stop offset="0" stop-color="#E7FFF2"/>
      <stop offset="1" stop-color="#9BF5C7"/>
    </linearGradient>
  </defs>

  <rect x="20" y="20" width="180" height="180" rx="44" fill="#08110C"/>
  <rect x="20.8" y="20.8" width="178.4" height="178.4" rx="43.2" stroke="#173524" stroke-width="1.6"/>

  <path
    d="M110 38L160 58V99C160 131 138 160 110 172C82 160 60 131 60 99V58L110 38Z"
    fill="url(#rgShield)"
    opacity="0.18"
    stroke="#49E39D"
    stroke-width="3"
  />

  <path
    d="M72 115
       C78 91 94 76 117 69
       C130 65 143 65 153 68
       C145 75 139 84 137 93
       C150 94 160 100 163 110
       C166 121 159 132 145 137
       L129 142
       C125 154 114 162 100 162H82
       C68 162 58 152 58 139
       C58 128 63 120 72 115Z"
    fill="#39DB8D"
  />

  <path
    d="M117 66
       C127 47 141 35 161 29
       C156 47 150 60 141 70L117 66Z"
    fill="url(#rgHorn)"
  />

  <path
    d="M118 77C122 68 130 62 138 61
       C136 70 131 77 125 81L118 77Z"
    fill="#D6FFE9"
    opacity="0.95"
  />

  <circle cx="121" cy="103" r="4" fill="#08110C"/>
</svg>
