<svg width="920" height="240" viewBox="0 0 920 240" fill="none" xmlns="http://www.w3.org/2000/svg">
  <defs>
    <linearGradient id="rgShield" x1="42" y1="26" x2="182" y2="186" gradientUnits="userSpaceOnUse">
      <stop offset="0" stop-color="#54F0A8"/>
      <stop offset="0.52" stop-color="#22C97A"/>
      <stop offset="1" stop-color="#0C5A39"/>
    </linearGradient>

    <linearGradient id="rgHorn" x1="119" y1="67" x2="164" y2="36" gradientUnits="userSpaceOnUse">
      <stop offset="0" stop-color="#E7FFF2"/>
      <stop offset="1" stop-color="#9BF5C7"/>
    </linearGradient>

    <filter id="rgShadow" x="-50%" y="-50%" width="200%" height="200%">
      <feDropShadow dx="0" dy="10" stdDeviation="12" flood-color="#000000" flood-opacity="0.28"/>
    </filter>

    <filter id="rgGlow" x="-50%" y="-50%" width="200%" height="200%">
      <feGaussianBlur stdDeviation="7" result="blur"/>
      <feMerge>
        <feMergeNode in="blur"/>
        <feMergeNode in="SourceGraphic"/>
      </feMerge>
    </filter>
  </defs>

  <g filter="url(#rgShadow)">
    <rect x="24" y="24" width="180" height="180" rx="44" fill="#08110C"/>
    <rect x="24.8" y="24.8" width="178.4" height="178.4" rx="43.2" stroke="#173524" stroke-width="1.6"/>
  </g>

  <path
    d="M114 42L164 62V103C164 135 142 164 114 176C86 164 64 135 64 103V62L114 42Z"
    fill="url(#rgShield)"
    opacity="0.18"
    stroke="#49E39D"
    stroke-width="3"
  />

  <path
    d="M114 49L156 66V102C156 129 138 151 114 162C90 151 72 129 72 102V66L114 49Z"
    fill="url(#rgShield)"
    opacity="0.08"
    filter="url(#rgGlow)"
  />

  <path
    d="M76 119
       C82 95 98 80 121 73
       C134 69 147 69 157 72
       C149 79 143 88 141 97
       C154 98 164 104 167 114
       C170 125 163 136 149 141
       L133 146
       C129 158 118 166 104 166H86
       C72 166 62 156 62 143
       C62 132 67 124 76 119Z"
    fill="#39DB8D"
  />

  <path
    d="M90 149H109C115 149 120 151 122 156
       C118 162 112 166 104 166H86
       C78 166 71 161 68 154
       C73 150 81 149 90 149Z"
    fill="#DFFEF0"
    opacity="0.16"
  />

  <path
    d="M121 70
       C131 51 145 39 165 33
       C160 51 154 64 145 74L121 70Z"
    fill="url(#rgHorn)"
  />

  <path
    d="M122 81C126 72 134 66 142 65
       C140 74 135 81 129 85L122 81Z"
    fill="#D6FFE9"
    opacity="0.95"
  />

  <circle cx="125" cy="107" r="4" fill="#08110C"/>

  <path
    d="M78 124
       C86 119 93 117 101 117
       C95 125 93 134 95 143
       C85 142 78 137 75 130
       C75 127 76 125 78 124Z"
    fill="#0D2A1B"
    opacity="0.52"
  />

  <g>
    <text
      x="236"
      y="104"
      fill="#F8FAFC"
      font-family="Inter, Arial, Helvetica, sans-serif"
      font-size="54"
      font-weight="800"
      letter-spacing="-1.3"
    >
      RhinoGuardians
    </text>

    <text
      x="239"
      y="135"
      fill="#72E7AF"
      font-family="Inter, Arial, Helvetica, sans-serif"
      font-size="16"
      font-weight="700"
      letter-spacing="3.4"
    >
      BY LINFY TECH SOLUTIONS
    </text>

    <line x1="239" y1="153" x2="620" y2="153" stroke="#173524" stroke-width="2"/>

    <text
      x="239"
      y="180"
      fill="#9DB2A7"
      font-family="Inter, Arial, Helvetica, sans-serif"
      font-size="20"
      font-weight="500"
      letter-spacing="0.2"
    >
      AI-Powered Conservation Intelligence
    </text>
  </g>
</svg>
